<svg width="18" height="18" viewBox="0 0 18 18" fill="none" xmlns="http://www.w3.org/2000/svg">
<path d="M6.36556 7.63366C7.302 9.26998 8.6712 10.6305 10.3179 11.561L11.2024 10.3306C11.4965 9.92155 12.0516 9.79515 12.4956 10.0361C13.9024 10.7998 15.4571 11.2638 17.0789 11.3914C17.599 11.4324 18 11.8636 18 12.382V16.8167C18 17.3262 17.6122 17.7531 17.1022 17.8051C16.5723 17.8593 16.0377 17.8865 15.5 17.8865C6.93959 17.8865 0 10.9907 0 2.48424C0 1.9499 0.0274201 1.41871 0.0818901 0.8921C0.1343 0.385305 0.56394 0 1.07665 0H5.53942C6.0611 0 6.49513 0.398511 6.5363 0.915282C6.66467 2.52685 7.1317 4.0718 7.9002 5.46974C8.1427 5.9109 8.0155 6.46254 7.6039 6.75471L6.36556 7.63366ZM3.84425 6.98091L5.7442 5.63235C5.20547 4.47674 4.83628 3.2512 4.64727 1.98739H2.00907C2.00303 2.15266 2 2.31829 2 2.48424C2 9.89303 8.0442 15.8991 15.5 15.8991C15.667 15.8991 15.8337 15.8961 16 15.8901V13.2685C14.7282 13.0807 13.4949 12.7138 12.3319 12.1785L10.9748 14.0665C10.4258 13.8546 9.8956 13.6052 9.3874 13.3216L9.3293 13.2887C7.3697 12.1814 5.74134 10.5633 4.627 8.61603L4.59394 8.5583C4.30849 8.0533 4.05754 7.52644 3.84425 6.98091Z" fill="black"/>
</svg>
